0
SECTION
2
HEADER
9
$INSUNITS
70
4
9
$ACADVER
1
AC1014
9
$HANDSEED
5
FFFF
0
ENDSEC
0
SECTION
2
TABLES
0
TABLE
2
VPORT
5
8
100
AcDbSymbolTable
0
ENDTAB
0
TABLE
2
LTYPE
5
5
100
AcDbSymbolTable
0
LTYPE
5
14
100
AcDbSymbolTableRecord
100
AcDbLinetypeTableRecord
2
BYBLOCK
70
0
0
LTYPE
5
15
100
AcDbSymbolTableRecord
100
AcDbLinetypeTableRecord
2
BYLAYER
70
0
0
ENDTAB
0
TABLE
2
LAYER
5
2
100
AcDbSymbolTable
70
2
0
LAYER
5
50
100
AcDbSymbolTableRecord
100
AcDbLayerTableRecord
2
0
70
0
6
CONTINUOUS
0
ENDTAB
0
TABLE
2
STYLE
5
3
100
AcDbSymbolTable
70
1
0
STYLE
5
11
100
AcDbSymbolTableRecord
100
AcDbTextStyleTableRecord
2
STANDARD
70
0
0
ENDTAB
0
TABLE
2
VIEW
5
6
100
AcDbSymbolTable
70
0
0
ENDTAB
0
TABLE
2
UCS
5
7
100
AcDbSymbolTable
70
0
0
ENDTAB
0
TABLE
2
APPID
5
9
100
AcDbSymbolTable
70
2
0
APPID
5
12
100
AcDbSymbolTableRecord
100
AcDbRegAppTableRecord
2
ACAD
70
0
0
ENDTAB
0
TABLE
2
DIMSTYLE
5
A
100
AcDbSymbolTable
70
1
0
ENDTAB
0
TABLE
2
BLOCK_RECORD
5
1
100
AcDbSymbolTable
70
1
0
BLOCK_RECORD
5
1F
100
AcDbSymbolTableRecord
100
AcDbBlockTableRecord
2
*MODEL_SPACE
0
BLOCK_RECORD
5
1B
100
AcDbSymbolTableRecord
100
AcDbBlockTableRecord
2
*PAPER_SPACE
0
ENDTAB
0
ENDSEC
0
SECTION
2
BLOCKS
0
BLOCK
5
20
100
AcDbEntity
100
AcDbBlockBegin
2
*MODEL_SPACE
0
ENDBLK
5
21
100
AcDbEntity
100
AcDbBlockEnd
0
BLOCK
5
1C
100
AcDbEntity
100
AcDbBlockBegin
2
*PAPER_SPACE
0
ENDBLK
5
1D
100
AcDbEntity
100
AcDbBlockEnd
0
ENDSEC
0
SECTION
2
ENTITIES
0
LWPOLYLINE
5
100
100
AcDbEntity
8
0
100
AcDbPolyline
90
4
70
1
43
0.0
10
4.0000000596046492
20
9.0000001341104543
10
5.000000074505806
20
10.000000149011615
10
-5.000000074505806
20
10.000000149011612
10
-4.0000000596046448
20
9.0000001341104507
0
LWPOLYLINE
5
101
100
AcDbEntity
8
0
100
AcDbPolyline
90
4
70
1
43
0.0
10
21.000000074505802
20
16.000000551342968
10
22.000000074505806
20
17.000000581145297
10
22.000000581145301
20
-16.999999925494187
10
21.000000551342968
20
-15.99999992549419
0
LWPOLYLINE
5
102
100
AcDbEntity
8
0
100
AcDbPolyline
90
4
70
1
43
0.0
10
12.000000178813934
20
17.000000253319744
10
13.000000193715096
20
18.000000268220905
10
-13.000000193715096
20
18.000000268220901
10
-12.000000178813934
20
17.00000025331974
0
LWPOLYLINE
5
103
100
AcDbEntity
8
0
100
AcDbPolyline
90
4
70
1
43
0.0
10
29.00000007450581
20
24.000000789761557
10
30.000000074505813
20
25.000000819563873
10
30.000000819563866
20
-24.999999925494194
10
29.00000078976154
20
-23.99999992549418
0
LWPOLYLINE
5
104
100
AcDbEntity
8
0
100
AcDbPolyline
90
60
70
1
43
0.0
10
38.000000566244125
20
15.000000372529044
10
35.000000521540642
20
15.000000372529044
10
35.000000521540642
20
25.00000037252903
10
38.000000566244125
20
25.00000037252903
10
38.000000566244125
20
35.000000521540642
10
35
20
35.000000521540642
10
35.000000521540642
20
38.000000521540642
10
25.00000037252903
20
38.000000521540642
10
25.00000037252903
20
34.999999999999993
10
15.000000223517418
20
34.999999999999993
10
15.000000223517418
20
38.000000521540642
10
4.9999994784593582
20
38.000000521540642
10
4.9999994784593582
20
35
10
-5.0000005215406418
20
35
10
-5.0000005215406418
20
38.000000521540642
10
-15.000000521540642
20
38.000000521540642
10
-15.000000521540642
20
35.000000521540642
10
-25.000000521540642
20
35.000000521540642
10
-25.000000521540642
20
38.000000521540642
10
-35.000000521540642
20
38.000000521540642
10
-35.000000521540642
20
35.000000521540642
10
-38.000000521540642
20
35.000000521540642
10
-38.000000521540642
20
25.00000037252903
10
-35.000000521540642
20
25.00000037252903
10
-35.000000521540642
20
15.000000372529048
10
-38.000000521540642
20
15.000000372529048
10
-38.000000521540642
20
5.000000074505806
10
-34.999999999999993
20
5.000000074505806
10
-34.999999999999993
20
-5.000000074505806
10
-38.000000521540642
20
-5.000000074505806
10
-38.000000521540642
20
-15.000000223517418
10
-34.999999999999993
20
-15.000000223517418
10
-34.999999999999993
20
-25
10
-38
20
-25
10
-38
20
-35
10
-35.000000521540642
20
-35
10
-35.000000521540642
20
-38
10
-25
20
-38
10
-25
20
-35
10
-15
20
-35
10
-15
20
-38
10
-5
20
-38
10
-5
20
-35
10
5
20
-35
10
5
20
-38
10
15
20
-38
10
15
20
-35
10
25
20
-35
10
25
20
-38
10
35
20
-38
10
35
20
-35
10
38.000000566244125
20
-35.000000521540642
10
38.000000566244125
20
-25.00000037252903
10
35
20
-25.00000037252903
10
35
20
-15.000000223517418
10
38.000000566244125
20
-15.000000223517418
10
38.000000566244125
20
-5.000000074505806
10
35
20
-5.000000074505806
10
35
20
5.000000074505806
10
38.000000566244125
20
5.000000074505806
0
LWPOLYLINE
5
105
100
AcDbEntity
8
0
100
AcDbPolyline
90
4
70
1
43
0.0
10
25.000000074505806
20
20.000000670552261
10
26.000000074505802
20
21.00000070035458
10
26.00000070035458
20
-20.999999925494201
10
25.000000670552261
20
-19.999999925494194
0
LWPOLYLINE
5
106
100
AcDbEntity
8
0
100
AcDbPolyline
90
4
70
1
43
0.0
10
29.000000432133675
20
24.000000357627869
10
30.000000447034836
20
25.00000037252903
10
30.000000447034836
20
-25.00000037252903
10
29.000000432133675
20
-24.000000357627869
0
LWPOLYLINE
5
107
100
AcDbEntity
8
0
100
AcDbPolyline
90
4
70
1
43
0.0
10
17.000000074505817
20
12.000000432133682
10
18.000000074505813
20
13.000000461936008
10
18.000000461935997
20
-12.999999925494192
10
17.000000432133682
20
-11.999999925494187
0
LWPOLYLINE
5
108
100
AcDbEntity
8
0
100
AcDbPolyline
90
4
70
1
43
0.0
10
16.000000238418586
20
21.000000312924392
10
17.000000253319751
20
22.000000327825553
10
-17.000000253319737
20
22.000000327825546
10
-16.000000238418579
20
21.000000312924385
0
LWPOLYLINE
5
109
100
AcDbEntity
8
0
100
AcDbPolyline
90
4
70
1
43
0.0
10
8.0000001192092984
20
13.000000193715104
10
9.0000001341104507
20
14.000000208616257
10
-9.0000001341104507
20
14.000000208616257
10
-8.0000001192092896
20
13.000000193715096
0
LWPOLYLINE
5
110
100
AcDbEntity
8
0
100
AcDbPolyline
90
4
70
1
43
0.0
10
24.000000357627869
20
29.000000432133675
10
25.000000372529037
20
30.000000447034843
10
-25.00000037252903
20
30.000000447034836
10
-24.000000357627869
20
29.000000432133675
0
LWPOLYLINE
5
111
100
AcDbEntity
8
0
100
AcDbPolyline
90
4
70
1
43
0.0
10
13.000000074505813
20
8.0000003129243922
10
14.00000007450581
20
9.0000003427267075
10
14.000000342726704
20
-8.9999999254941887
10
13.000000312924387
20
-7.9999999254941923
0
LWPOLYLINE
5
112
100
AcDbEntity
8
0
100
AcDbPolyline
90
4
70
1
43
0.0
10
20.000000298023224
20
25.00000037252903
10
21.000000312924385
20
26.000000387430191
10
-21.000000312924385
20
26.000000387430191
10
-20.000000298023224
20
25.00000037252903
0
LWPOLYLINE
5
113
100
AcDbEntity
8
0
100
AcDbPolyline
90
4
70
1
43
0.0
10
-9.0000003427267039
20
-14.000000074505806
10
8.9999999254941887
20
-14.000000342726707
10
7.9999999254941923
20
-13.000000312924387
10
-8.0000003129243868
20
-13.000000074505804
0
LWPOLYLINE
5
114
100
AcDbEntity
8
0
100
AcDbPolyline
90
4
70
1
43
0.0
10
12.999999925494192
20
-18.000000461935997
10
-13.000000461935999
20
-18.000000074505802
10
-12.000000432133673
20
-17.000000074505806
10
11.999999925494187
20
-17.000000432133678
0
LWPOLYLINE
5
115
100
AcDbEntity
8
0
100
AcDbPolyline
90
4
70
1
43
0.0
10
-17.000000581145287
20
-22.000000074505802
10
16.999999925494194
20
-22.00000058114529
10
15.99999992549419
20
-21.000000551342964
10
-16.000000551342964
20
-21.000000074505802
0
LWPOLYLINE
5
116
100
AcDbEntity
8
0
100
AcDbPolyline
90
4
70
1
43
0.0
10
-20.000000670552254
20
-25.000000074505799
10
19.999999925494194
20
-25.000000670552261
10
20.999999925494194
20
-26.00000070035458
10
-21.000000700354576
20
-26.000000074505802
0
LWPOLYLINE
5
117
100
AcDbEntity
8
0
100
AcDbPolyline
90
4
70
1
43
0.0
10
10.000000074505806
20
5.0000002235174179
10
10.000000223517418
20
-4.999999925494194
10
9.000000193715092
20
-3.9999999254941976
10
9.0000000745058095
20
4.000000193715092
0
LWPOLYLINE
5
118
100
AcDbEntity
8
0
100
AcDbPolyline
90
4
70
1
43
0.0
10
3.9999999254941976
20
-9.0000001937150955
10
-4.000000193715092
20
-9.0000000745058095
10
-5.0000002235174179
20
-10.000000074505802
10
4.999999925494194
20
-10.000000223517418
0
LWPOLYLINE
5
119
100
AcDbEntity
8
0
100
AcDbPolyline
90
4
70
1
43
0.0
10
24.999999925494194
20
-30.000000819563866
10
-25.000000819563866
20
-30.000000074505802
10
-24.00000078976154
20
-29.000000074505799
10
23.99999992549418
20
-29.00000078976154
0
LWPOLYLINE
5
120
100
AcDbEntity
8
0
100
AcDbPolyline
90
4
70
1
43
0.0
10
-14.000000208616257
20
-9.0000001341104507
10
-14.000000208616257
20
9.0000001341104507
10
-13.000000193715096
20
8.0000001192092896
10
-13.000000193715096
20
-8.0000001192092896
0
LWPOLYLINE
5
121
100
AcDbEntity
8
0
100
AcDbPolyline
90
4
70
1
43
0.0
10
-21.000000312924385
20
16.000000238418579
10
-21.000000312924385
20
-16.000000238418579
10
-22.000000327825546
20
-17.00000025331974
10
-22.000000327825546
20
17.00000025331974
0
LINE
5
122
100
AcDbEntity
8
0
100
AcDbLine
10
0
20
-4.0000000596046448
30
0
11
0
21
5.000000074505806
31
0
0
LWPOLYLINE
5
123
100
AcDbEntity
8
0
100
AcDbPolyline
90
4
70
1
43
0.0
10
-9.0000001341104507
20
4.0000000596046448
10
-10.000000149011612
20
5.000000074505806
10
-10.000000149011612
20
-5.000000074505806
10
-9.0000001341104507
20
-4.0000000596046448
0
LWPOLYLINE
5
124
100
AcDbEntity
8
0
100
AcDbPolyline
90
4
70
1
43
0.0
10
-17.00000025331974
20
-12.000000178813934
10
-17.00000025331974
20
12.000000178813934
10
-18.000000268220901
20
13.000000193715096
10
-18.000000268220901
20
-13.000000193715096
0
LWPOLYLINE
5
125
100
AcDbEntity
8
0
100
AcDbPolyline
90
4
70
1
43
0.0
10
-29.000000432133675
20
24.000000357627869
10
-30.000000447034836
20
25.00000037252903
10
-30.000000447034836
20
-25.00000037252903
10
-29.000000432133675
20
-24.000000357627869
0
LINE
5
126
100
AcDbEntity
8
0
100
AcDbLine
10
5.000000074505806
20
0
30
0
11
-5.000000074505806
21
0
31
0
0
LWPOLYLINE
5
127
100
AcDbEntity
8
0
100
AcDbPolyline
90
4
70
1
43
0.0
10
-25.00000037252903
20
-20.000000298023224
10
-26.000000387430191
20
-21.000000312924385
10
-26.000000387430191
20
21.000000312924385
10
-25.00000037252903
20
20.000000298023224
0
LWPOLYLINE
5
128
100
AcDbEntity
8
0
100
AcDbPolyline
90
44
70
1
43
0.0
10
-42.00000062584877
20
25.50000037997961
10
-42.00000062584877
20
14.500000216066837
10
-45.000000670552254
20
14.500000216066837
10
-45.000000670552254
20
5.5000000819563866
10
-42.00000062584877
20
5.5000000819563866
10
-42.00000062584877
20
-5.5000000819563866
10
-45.000000670552254
20
-5.5000000819563866
10
-45.000000670552254
20
-14.500000566244125
10
-42.00000062584877
20
-14.500000566244125
10
-42.00000062584877
20
-25.500000566244125
10
-45.000000670552254
20
-25.500000566244125
10
-45.000000670552254
20
-34.500000566244125
10
-42
20
-34.500000566244125
10
-42
20
-38.000000566244125
10
-51.000000000000007
20
-38.000000566244125
10
-51.000000000000007
20
-35.000000566244125
10
-57.500000000000007
20
-35.000000624358655
10
-57.499999946355828
20
-38.000000624358648
10
-66.499999946355842
20
-38.000000785291192
10
-66.500000008940702
20
-34.500000785291192
10
-63.499999338388456
20
-34.500000731646999
10
-63.499999499320992
20
-25.500000731646999
10
-66.499999544024476
20
-25.500000785291181
10
-66.499999740719801
20
-14.500000785291181
10
-63.499999696016317
20
-14.500000731647003
10
-63.499999856948861
20
-5.5000002473592602
10
-66.499999901652345
20
-5.5000003010034426
10
-66.500000098347684
20
5.4999998629093216
10
-63.5000000536442
20
5.4999999165535041
10
-63.500000214576737
20
14.500000050663955
10
-66.500000259280213
20
14.499999997019772
10
-66.500000455975538
20
25.500000160932544
10
-63.500000411272062
20
25.50000021457673
10
-63.500000572204598
20
34.500000348687188
10
-66.500000616908082
20
34.500000295042987
10
-66.500000679492942
20
37.999999780952933
10
-57.500000679492949
20
37.999999941885463
10
-57.500000625848777
20
35.000000463426119
10
-51.00000062584877
20
35.000000521540642
10
-51.00000062584877
20
38.000000000000007
10
-42.00000062584877
20
38.000000000000007
10
-42.00000062584877
20
34.500000514090061
10
-45.000000670552254
20
34.500000514090061
10
-45.000000670552254
20
25.50000037997961
0
LWPOLYLINE
5
129
100
AcDbEntity
8
0
100
AcDbPolyline
90
44
70
1
43
0.0
10
63.499999499320992
20
-25.500000731646999
10
63.499999338388456
20
-34.500000731646999
10
66.500000008940702
20
-34.500000785291192
10
66.499999946355842
20
-38.000000785291192
10
57.499999946355828
20
-38.000000624358648
10
57.500000000000007
20
-35.000000624358655
10
51.000000000000007
20
-35.000000566244125
10
51.000000000000007
20
-38.000000566244125
10
42
20
-38.000000566244125
10
42
20
-34.500000566244125
10
45.000000670552254
20
-34.500000566244125
10
45.000000670552254
20
-25.500000566244125
10
42.00000062584877
20
-25.500000566244125
10
42.00000062584877
20
-14.500000566244125
10
45.000000670552254
20
-14.500000566244125
10
45.000000670552254
20
-5.5000000819563866
10
42.00000062584877
20
-5.5000000819563866
10
42.00000062584877
20
5.5000000819563866
10
45.000000670552254
20
5.5000000819563866
10
45.000000670552254
20
14.500000216066837
10
42.00000062584877
20
14.500000216066837
10
42.00000062584877
20
25.50000037997961
10
45.000000670552254
20
25.50000037997961
10
45.000000670552254
20
34.500000514090061
10
42.00000062584877
20
34.500000514090061
10
42.00000062584877
20
38
10
51.00000062584877
20
38
10
51.00000062584877
20
35.000000521540642
10
57.500000625848777
20
35.000000463426119
10
57.500000679492949
20
37.99999994188547
10
66.500000679492942
20
37.999999780952933
10
66.500000616908082
20
34.500000295042994
10
63.500000572204598
20
34.50000034868718
10
63.500000411272062
20
25.50000021457673
10
66.500000455975538
20
25.500000160932544
10
66.500000259280213
20
14.499999997019772
10
63.500000214576737
20
14.500000050663955
10
63.5000000536442
20
5.4999999165535041
10
66.500000098347684
20
5.4999998629093216
10
66.499999901652345
20
-5.5000003010034471
10
63.499999856948861
20
-5.5000002473592646
10
63.499999696016317
20
-14.500000731647003
10
66.499999740719801
20
-14.500000785291181
10
66.499999544024476
20
-25.500000785291181
0
LINE
5
130
100
AcDbEntity
8
0
100
AcDbLine
10
-50.50000101327889
20
-44.99999952192104
30
0
11
-45
21
-45
31
0
0
LWPOLYLINE
5
131
100
AcDbEntity
8
0
100
AcDbPolyline
90
60
70
1
43
0.0
10
35
20
-115
10
35
20
-118
10
25
20
-118
10
25
20
-115
10
15
20
-115
10
15
20
-118
10
5
20
-118
10
5
20
-115
10
-5
20
-115
10
-5
20
-118
10
-15
20
-118
10
-15
20
-115
10
-25
20
-115
10
-25
20
-118
10
-35.000000521540642
20
-118
10
-35.000000521540642
20
-115
10
-38
20
-115
10
-38
20
-105
10
-34.999999999999993
20
-105
10
-34.999999999999993
20
-95.000000223517418
10
-38.000000521540642
20
-95.000000223517418
10
-38.000000521540642
20
-85.000000074505806
10
-34.999999999999993
20
-85.000000074505806
10
-34.999999999999993
20
-74.999999925494194
10
-38.000000521540642
20
-74.999999925494194
10
-38.000000521540642
20
-64.999999627470956
10
-35.000000521540642
20
-64.999999627470956
10
-35.000000521540642
20
-54.99999962747097
10
-38.000000521540642
20
-54.99999962747097
10
-38.000000521540642
20
-44.999999478459358
10
-35.000000521540642
20
-44.999999478459358
10
-35.000000521540642
20
-41.999999478459358
10
-25.000000521540642
20
-41.999999478459358
10
-25.000000521540642
20
-44.999999478459358
10
-15.000000521540642
20
-44.999999478459358
10
-15.000000521540642
20
-41.999999478459358
10
-5.0000005215406418
20
-41.999999478459358
10
-5.0000005215406418
20
-45
10
4.9999994784593582
20
-45
10
4.9999994784593582
20
-41.999999478459358
10
15.000000223517418
20
-41.999999478459358
10
15.000000223517418
20
-45
10
25.00000037252903
20
-45
10
25.00000037252903
20
-41.999999478459358
10
35.000000521540642
20
-41.999999478459358
10
35
20
-44.999999478459358
10
38.000000566244125
20
-44.999999478459358
10
38.000000566244125
20
-54.99999962747097
10
35.000000521540642
20
-54.99999962747097
10
35.000000521540642
20
-64.999999627470956
10
38.000000566244125
20
-64.999999627470956
10
38.000000566244125
20
-74.999999925494194
10
35
20
-74.999999925494194
10
35
20
-85.000000074505806
10
38.000000566244125
20
-85.000000074505806
10
38.000000566244125
20
-95.000000223517418
10
35
20
-95.000000223517418
10
35
20
-105.00000037252903
10
38.000000566244125
20
-105.00000037252903
10
38.000000566244125
20
-115.00000052154064
0
LINE
5
132
100
AcDbEntity
8
0
100
AcDbLine
10
10
20
-80
30
0
11
10.733985701772344
21
-80
31
0
0
LINE
5
133
100
AcDbEntity
8
0
100
AcDbLine
10
42
20
-94.500000000000043
30
0
11
45.000000670552254
21
-94.500000000000043
31
0
0
LINE
5
134
100
AcDbEntity
8
0
100
AcDbLine
10
-58.000015846141231
20
-117.99999671056726
30
0
11
-58.000015041479436
21
-114.99999986712992
31
0
0
LINE
5
135
100
AcDbEntity
8
0
100
AcDbLine
10
-63.500008396803395
20
-85.499998391915881
30
0
11
-66.500009067355592
21
-85.499997870375211
31
0
0
LINE
5
136
100
AcDbEntity
8
0
100
AcDbLine
10
-45.000000670552254
20
-65.500000000000071
30
0
11
-42
21
-65.500000000000071
31
0
0
LINE
5
137
100
AcDbEntity
8
0
100
AcDbLine
10
-66.500005590418368
20
-65.499997870375523
30
0
11
-66.5000036781029
21
-54.499997870375694
31
0
0
LINE
5
138
100
AcDbEntity
8
0
100
AcDbLine
10
63.500011647739697
20
-105.49999839191564
30
0
11
66.500012544292829
21
-105.4999978703749
31
0
0
LINE
5
139
100
AcDbEntity
8
0
100
AcDbLine
10
-63.50000996142515
20
-94.499998391915767
30
0
11
-63.500008396803395
21
-85.499998391915881
31
0
0
LINE
5
140
100
AcDbEntity
8
0
100
AcDbLine
10
42
20
-105.50000000000004
30
0
11
42
21
-94.500000000000043
31
0
0
LINE
5
141
100
AcDbEntity
8
0
100
AcDbLine
10
-63.500003007550674
20
-54.499998391916392
30
0
11
-63.500002026557745
21
-44.99999839191635
31
0
0
LINE
5
142
100
AcDbEntity
8
0
100
AcDbLine
10
-45.000000670552254
20
-54.500000000000064
30
0
11
-45
21
-45
31
0
0
LINE
5
143
100
AcDbEntity
8
0
100
AcDbLine
10
-50.49999887123704
20
-117.99999736249447
30
0
11
-50.499999154358797
21
-115.00000051905702
31
0
0
LINE
5
144
100
AcDbEntity
8
0
100
AcDbLine
10
-58.000015846141231
20
-117.99999671056726
30
0
11
-50.500016013779415
21
-117.99999801441871
31
0
0
LINE
5
145
100
AcDbEntity
8
0
100
AcDbLine
10
45.000000896553189
20
-105.50000000000004
30
0
11
42
21
-105.50000000000004
31
0
0
LINE
5
146
100
AcDbEntity
8
0
100
AcDbLine
10
-66.500009067355592
20
-85.499997870375211
30
0
11
-66.500007155040123
21
-74.499997870375381
31
0
0
LINE
5
147
100
AcDbEntity
8
0
100
AcDbLine
10
-63.500014195838062
20
-114.9999983919153
30
0
11
-58.000015041479436
21
-114.99999986712992
31
0
0
LINE
5
148
100
AcDbEntity
8
0
100
AcDbLine
10
63.500008396803395
20
-85.499998391915881
30
0
11
66.500009067355592
21
-85.499997870375211
31
0
0
LINE
5
149
100
AcDbEntity
8
0
100
AcDbLine
10
-50.50000075250864
20
-42
30
0
11
-50.50000101327889
21
-44.99999952192104
31
0
0
LINE
5
150
100
AcDbEntity
8
0
100
AcDbLine
10
-45.000000670552254
20
-85.500000000000043
30
0
11
-42
21
-85.500000000000043
31
0
0
LINE
5
151
100
AcDbEntity
8
0
100
AcDbLine
10
-42
20
-54.500000000000064
30
0
11
-45.000000670552254
21
-54.500000000000064
31
0
0
LINE
5
152
100
AcDbEntity
8
0
100
AcDbLine
10
42
20
-74.500000000000043
30
0
11
45.000000670552254
21
-74.500000000000043
31
0
0
LINE
5
153
100
AcDbEntity
8
0
100
AcDbLine
10
66.500010631977361
20
-94.499997870375054
30
0
11
63.50000996142515
21
-94.499998391915767
31
0
0
LINE
5
154
100
AcDbEntity
8
0
100
AcDbLine
10
-58.000001013278855
20
-44.999998869995309
30
0
11
-63.500002026557745
21
-44.99999839191635
31
0
0
LINE
5
155
100
AcDbEntity
8
0
100
AcDbLine
10
-66.5000036781029
20
-54.499997870375694
30
0
11
-63.500003007550674
21
-54.499998391916392
31
0
0
LINE
5
156
100
AcDbEntity
8
0
100
AcDbLine
10
-58.000000752508605
20
-41.999999348074269
30
0
11
-58.000001013278855
21
-44.999998869995309
31
0
0
LINE
5
157
100
AcDbEntity
8
0
100
AcDbLine
10
-63.500004919866157
20
-65.499998391916222
30
0
11
-66.500005590418368
21
-65.499997870375523
31
0
0
LINE
5
158
100
AcDbEntity
8
0
100
AcDbLine
10
-50.500000640750002
20
-42.000000651925752
30
0
11
-58.000000752508605
21
-41.999999348074269
31
0
0
LINE
5
159
100
AcDbEntity
8
0
100
AcDbLine
10
-66.500007155040123
20
-74.499997870375381
30
0
11
-63.500006484487912
21
-74.499998391916066
31
0
0
LINE
5
160
100
AcDbEntity
8
0
100
AcDbLine
10
45
20
-115
30
0
11
50.499999154358797
21
-115.00000051905702
31
0
0
LINE
5
161
100
AcDbEntity
8
0
100
AcDbLine
10
45
20
-115
30
0
11
45.000000896553189
21
-105.50000000000004
31
0
0
LINE
5
162
100
AcDbEntity
8
0
100
AcDbLine
10
42
20
-85.500000000000043
30
0
11
42
21
-74.500000000000043
31
0
0
LINE
5
163
100
AcDbEntity
8
0
100
AcDbLine
10
45.000000670552254
20
-94.500000000000043
30
0
11
45.000000670552254
21
-85.500000000000043
31
0
0
LINE
5
164
100
AcDbEntity
8
0
100
AcDbLine
10
63.500014195838062
20
-114.9999983919153
30
0
11
63.500011647739697
21
-105.49999839191564
31
0
0
LINE
5
165
100
AcDbEntity
8
0
100
AcDbLine
10
58.000015846141231
20
-117.99999671056726
30
0
11
50.500016013779415
21
-117.99999801441871
31
0
0
LINE
5
166
100
AcDbEntity
8
0
100
AcDbLine
10
63.500006484487912
20
-74.499998391916066
30
0
11
63.500004919866157
21
-65.499998391916222
31
0
0
CIRCLE
5
167
100
AcDbEntity
8
0
100
AcDbCircle
10
0
20
-80
30
0
40
20.999999999999996
210
0
220
0
230
1
0
LINE
5
168
100
AcDbEntity
8
0
100
AcDbLine
10
45.000000670552254
20
-74.500000000000043
30
0
11
45.000000670552254
21
-65.500000000000071
31
0
0
LINE
5
169
100
AcDbEntity
8
0
100
AcDbLine
10
-63.500006484487912
20
-74.499998391916066
30
0
11
-63.500004919866157
21
-65.499998391916222
31
0
0
LINE
5
170
100
AcDbEntity
8
0
100
AcDbLine
10
42
20
-65.500000000000071
30
0
11
42
21
-54.500000000000064
31
0
0
LINE
5
171
100
AcDbEntity
8
0
100
AcDbLine
10
-5.000000074505806
20
-52.499999590218067
30
0
11
-5.000000074505806
21
-53.499999605119228
31
0
0
LINE
5
172
100
AcDbEntity
8
0
100
AcDbLine
10
-42
20
-94.500000000000043
30
0
11
-45.000000670552254
21
-94.500000000000043
31
0
0
LINE
5
173
100
AcDbEntity
8
0
100
AcDbLine
10
63.50000996142515
20
-94.499998391915767
30
0
11
63.500008396803395
21
-85.499998391915881
31
0
0
LINE
5
174
100
AcDbEntity
8
0
100
AcDbLine
10
-45.000000896553189
20
-105.50000000000004
30
0
11
-42
21
-105.50000000000004
31
0
0
LINE
5
175
100
AcDbEntity
8
0
100
AcDbLine
10
-42
20
-74.500000000000043
30
0
11
-45.000000670552254
21
-74.500000000000043
31
0
0
LINE
5
176
100
AcDbEntity
8
0
100
AcDbLine
10
-45.000000670552254
20
-74.500000000000043
30
0
11
-45.000000670552254
21
-65.500000000000071
31
0
0
LINE
5
177
100
AcDbEntity
8
0
100
AcDbLine
10
-45.000000670552254
20
-94.500000000000043
30
0
11
-45.000000670552254
21
-85.500000000000043
31
0
0
LINE
5
178
100
AcDbEntity
8
0
100
AcDbLine
10
45.000000670552254
20
-85.500000000000043
30
0
11
42
21
-85.500000000000043
31
0
0
LINE
5
179
100
AcDbEntity
8
0
100
AcDbLine
10
5.000000074505806
20
-52.499999590218067
30
0
11
5.000000074505806
21
-53.499999605119228
31
0
0
LINE
5
180
100
AcDbEntity
8
0
100
AcDbLine
10
63.500004919866157
20
-65.499998391916222
30
0
11
66.500005590418368
21
-65.499997870375523
31
0
0
LINE
5
181
100
AcDbEntity
8
0
100
AcDbLine
10
-27.500000409781933
20
-53.499999605119228
30
0
11
-27.500000409781933
21
-52.499999590218067
31
0
0
LINE
5
182
100
AcDbEntity
8
0
100
AcDbLine
10
50.500000640750002
20
-42.000000651925752
30
0
11
58.000000752508605
21
-41.999999348074269
31
0
0
LINE
5
183
100
AcDbEntity
8
0
100
AcDbLine
10
63.500014195838062
20
-114.9999983919153
30
0
11
58.000015041479436
21
-114.99999986712992
31
0
0
LINE
5
184
100
AcDbEntity
8
0
100
AcDbLine
10
50.50000075250864
20
-42
30
0
11
50.50000101327889
21
-44.99999952192104
31
0
0
LINE
5
185
100
AcDbEntity
8
0
100
AcDbLine
10
66.500012544292829
20
-105.4999978703749
30
0
11
66.500010631977361
21
-94.499997870375054
31
0
0
LINE
5
186
100
AcDbEntity
8
0
100
AcDbLine
10
66.5000036781029
20
-54.499997870375694
30
0
11
63.500003007550674
21
-54.499998391916392
31
0
0
LINE
5
187
100
AcDbEntity
8
0
100
AcDbLine
10
-45
20
-115
30
0
11
-50.499999154358797
21
-115.00000051905702
31
0
0
LINE
5
188
100
AcDbEntity
8
0
100
AcDbLine
10
58.000000752508605
20
-41.999999348074269
30
0
11
58.000001013278855
21
-44.999998869995309
31
0
0
LINE
5
189
100
AcDbEntity
8
0
100
AcDbLine
10
-10.000000000000002
20
-116
30
0
11
-10.000000000000004
21
-115
31
0
0
LINE
5
190
100
AcDbEntity
8
0
100
AcDbLine
10
66.500009067355592
20
-85.499997870375211
30
0
11
66.500007155040123
21
-74.499997870375381
31
0
0
LINE
5
191
100
AcDbEntity
8
0
100
AcDbLine
10
63.500003007550674
20
-54.499998391916392
30
0
11
63.500002026557745
21
-44.99999839191635
31
0
0
LINE
5
192
100
AcDbEntity
8
0
100
AcDbLine
10
-66.500010631977361
20
-94.499997870375054
30
0
11
-63.50000996142515
21
-94.499998391915767
31
0
0
LINE
5
193
100
AcDbEntity
8
0
100
AcDbLine
10
66.500005590418368
20
-65.499997870375523
30
0
11
66.5000036781029
21
-54.499997870375694
31
0
0
LINE
5
194
100
AcDbEntity
8
0
100
AcDbLine
10
-63.500014195838062
20
-114.9999983919153
30
0
11
-63.500011647739697
21
-105.49999839191564
31
0
0
LINE
5
195
100
AcDbEntity
8
0
100
AcDbLine
10
45.000000670552254
20
-54.500000000000064
30
0
11
45
21
-45
31
0
0
LINE
5
196
100
AcDbEntity
8
0
100
AcDbLine
10
-45
20
-115
30
0
11
-45.000000896553189
21
-105.50000000000004
31
0
0
LINE
5
197
100
AcDbEntity
8
0
100
AcDbLine
10
-42
20
-65.500000000000071
30
0
11
-42
21
-54.500000000000064
31
0
0
LINE
5
198
100
AcDbEntity
8
0
100
AcDbLine
10
-66.500012544292829
20
-105.4999978703749
30
0
11
-66.500010631977361
21
-94.499997870375054
31
0
0
LINE
5
199
100
AcDbEntity
8
0
100
AcDbLine
10
50.50000101327889
20
-44.99999952192104
30
0
11
45
21
-45
31
0
0
LINE
5
200
100
AcDbEntity
8
0
100
AcDbLine
10
50.49999887123704
20
-117.99999736249447
30
0
11
50.499999154358797
21
-115.00000051905702
31
0
0
LINE
5
201
100
AcDbEntity
8
0
100
AcDbLine
10
-42
20
-85.500000000000043
30
0
11
-42
21
-74.500000000000043
31
0
0
LINE
5
202
100
AcDbEntity
8
0
100
AcDbLine
10
45.000000670552254
20
-65.500000000000071
30
0
11
42
21
-65.500000000000071
31
0
0
LINE
5
203
100
AcDbEntity
8
0
100
AcDbLine
10
58.000015846141231
20
-117.99999671056726
30
0
11
58.000015041479436
21
-114.99999986712992
31
0
0
LINE
5
204
100
AcDbEntity
8
0
100
AcDbLine
10
27.500000409781933
20
-52.499999590218067
30
0
11
27.500000409781933
21
-53.499999605119228
31
0
0
LINE
5
205
100
AcDbEntity
8
0
100
AcDbLine
10
58.000001013278855
20
-44.999998869995309
30
0
11
63.500002026557745
21
-44.99999839191635
31
0
0
LINE
5
206
100
AcDbEntity
8
0
100
AcDbLine
10
42
20
-54.500000000000064
30
0
11
45.000000670552254
21
-54.500000000000064
31
0
0
LINE
5
207
100
AcDbEntity
8
0
100
AcDbLine
10
-42
20
-105.50000000000004
30
0
11
-42
21
-94.500000000000043
31
0
0
LINE
5
208
100
AcDbEntity
8
0
100
AcDbLine
10
66.500007155040123
20
-74.499997870375381
30
0
11
63.500006484487912
21
-74.499998391916066
31
0
0
LINE
5
209
100
AcDbEntity
8
0
100
AcDbLine
10
-63.500011647739697
20
-105.49999839191564
30
0
11
-66.500012544292829
21
-105.4999978703749
31
0
0
ENDSEC
0
SECTION
2
OBJECTS
0
DICTIONARY
5
C
100
AcDbDictionary
3
ACAD_GROUP
350
D
3
ACAD_MLINESTYLE
350
17
0
DICTIONARY
5
D
100
AcDbDictionary
0
DICTIONARY
5
1A
330
C
100
AcDbDictionary
0
DICTIONARY
5
17
100
AcDbDictionary
0
ENDSEC
0
EOF
